<svg width="58" height="36" viewBox="0 0 58 36" fill="none" xmlns="http://www.w3.org/2000/svg">
<path d="M51.9577 9.59922H42.291V8.39922L44.7077 1.19922H49.541L51.9577 8.39922V9.59922Z" stroke="white" stroke-width="2" stroke-miterlimit="10"/>
<path d="M47.125 9.59766V15.5977" stroke="white" stroke-width="2" stroke-miterlimit="10"/>
<path d="M56.791 15.5977H42.291V23.9977H56.791V15.5977Z" stroke="white" stroke-width="2" stroke-miterlimit="10"/>
<path d="M56.791 24H42.291V32.4H56.791V24Z" stroke="white" stroke-width="2" stroke-miterlimit="10"/>
<path d="M43.5 32.3984V35.9984" stroke="white" stroke-width="2" stroke-miterlimit="10"/>
<path d="M35.041 32.3984V35.9984" stroke="white" stroke-width="2" stroke-miterlimit="10"/>
<path d="M3.625 32.3984V35.9984" stroke="white" stroke-width="2" stroke-miterlimit="10"/>
<path d="M55.583 32.3984V35.9984" stroke="white" stroke-width="2" stroke-miterlimit="10"/>
<path d="M2.41602 14.3992V2.39922C2.41602 1.73646 2.95698 1.19922 3.62435 1.19922H35.041C35.7084 1.19922 36.2493 1.73646 36.2493 2.39922V14.3992" stroke="white" stroke-width="2" stroke-miterlimit="10"/>
<path d="M37.458 32.4008H1.20801V20.4008C1.20801 18.4125 2.83091 16.8008 4.83301 16.8008H33.833C35.8351 16.8008 37.458 18.4125 37.458 20.4008V32.4008Z" stroke="white" stroke-width="2" stroke-miterlimit="10"/>
<path d="M7.25 14.3977V11.9977C7.25 10.6721 8.33194 9.59766 9.66667 9.59766H14.5C15.8347 9.59766 16.9167 10.6721 16.9167 11.9977V14.3977" stroke="white" stroke-width="2" stroke-miterlimit="10"/>
<path d="M21.75 14.3977V11.9977C21.75 10.6721 22.8319 9.59766 24.1667 9.59766H29C30.3347 9.59766 31.4167 10.6721 31.4167 11.9977V14.3977" stroke="white" stroke-width="2" stroke-miterlimit="10"/>
</svg>
