<svg width="51" height="42" viewBox="0 0 51 42" fill="none" xmlns="http://www.w3.org/2000/svg">
<path d="M15.2222 28.5547C17.1778 28.5547 18.7778 26.688 18.7778 24.9991V16.9991C18.7778 14.0658 13 12.5547 9.88889 12.5547C6.77778 12.5547 1 14.0658 1 16.9991V24.9991C1 26.688 2.6 28.5547 4.55556 28.5547" stroke="white" stroke-width="2" stroke-miterlimit="10"/>
<path d="M24.9996 28.5547C26.6885 28.5547 28.5551 27.5769 28.5551 25.888V16.9991C28.5551 14.0658 23.3107 12.5547 20.5551 12.5547C20.2885 12.5547 18.7773 12.5547 18.7773 12.5547" stroke="white" stroke-width="2" stroke-miterlimit="10"/>
<path d="M9.88856 9.88889C11.933 9.88889 13.4441 8.46667 13.4441 6.33333V4.55556C13.4441 2.42222 11.933 1 9.88856 1C7.84412 1 6.33301 2.42222 6.33301 4.55556V6.33333C6.33301 8.46667 7.84412 9.88889 9.88856 9.88889Z" stroke="white" stroke-width="2" stroke-miterlimit="10"/>
<path d="M25 40.9996V18.7773" stroke="white" stroke-width="2" stroke-miterlimit="10"/>
<path d="M15.2227 40.9996V18.7773" stroke="white" stroke-width="2" stroke-miterlimit="10"/>
<path d="M4.55566 18.7773V40.9996" stroke="white" stroke-width="2" stroke-miterlimit="10"/>
<path d="M9.88867 27.668V41.0013" stroke="white" stroke-width="2" stroke-miterlimit="10"/>
<path d="M20.5556 9.88889C22.6 9.88889 24.1111 8.46667 24.1111 6.33333V4.55556C24.1111 2.42222 22.6 1 20.5556 1C18.5111 1 17 2.42222 17 4.55556V6.33333C17 8.46667 18.5111 9.88889 20.5556 9.88889Z" stroke="white" stroke-width="2" stroke-miterlimit="10"/>
<path d="M35.6666 28.5547C37.3554 28.5547 39.2221 27.5769 39.2221 25.888V16.9991C39.2221 14.0658 33.9777 12.5547 31.2221 12.5547C30.9554 12.5547 29.4443 12.5547 29.4443 12.5547" stroke="white" stroke-width="2" stroke-miterlimit="10"/>
<path d="M46.3336 28.5547C48.0224 28.5547 49.8891 27.5769 49.8891 25.888V16.9991C49.8891 14.0658 44.6447 12.5547 41.8891 12.5547C41.6224 12.5547 40.1113 12.5547 40.1113 12.5547" stroke="white" stroke-width="2" stroke-miterlimit="10"/>
<path d="M35.667 40.9996V18.7773" stroke="white" stroke-width="2" stroke-miterlimit="10"/>
<path d="M46.333 40.9996V18.7773" stroke="white" stroke-width="2" stroke-miterlimit="10"/>
<path d="M31.2225 9.88889C33.267 9.88889 34.7781 8.46667 34.7781 6.33333V4.55556C34.7781 2.42222 33.267 1 31.2225 1C29.1781 1 27.667 2.42222 27.667 4.55556V6.33333C27.667 8.46667 29.1781 9.88889 31.2225 9.88889Z" stroke="white" stroke-width="2" stroke-miterlimit="10"/>
<path d="M41.8886 9.88889C43.933 9.88889 45.4441 8.46667 45.4441 6.33333V4.55556C45.4441 2.42222 43.933 1 41.8886 1C39.8441 1 38.333 2.42222 38.333 4.55556V6.33333C38.333 8.46667 39.8441 9.88889 41.8886 9.88889Z" stroke="white" stroke-width="2" stroke-miterlimit="10"/>
</svg>
