<svg width="30" height="30" viewBox="0 0 30 30" fill="none" xmlns="http://www.w3.org/2000/svg">
<circle cx="15" cy="15" r="15" fill="#323232" fill-opacity="0.2"/>
<path d="M16.35 16.75H12.99C12.99 16.302 13.102 15.875 13.326 15.469C13.564 15.049 13.844 14.685 14.166 14.377C14.502 14.055 14.831 13.747 15.153 13.453C15.489 13.159 15.769 12.844 15.993 12.508C16.231 12.172 16.35 11.836 16.35 11.5C16.35 10.688 15.832 10.282 14.796 10.282C13.788 10.282 13.032 10.87 12.528 12.046L9.63 10.387C10.092 9.337 10.792 8.511 11.73 7.909C12.682 7.307 13.746 7.006 14.922 7.006C16.21 7.006 17.33 7.384 18.282 8.14C19.234 8.896 19.71 9.918 19.71 11.206C19.71 11.78 19.591 12.319 19.353 12.823C19.129 13.327 18.849 13.754 18.513 14.104C18.191 14.454 17.862 14.776 17.526 15.07C17.204 15.364 16.924 15.658 16.686 15.952C16.462 16.232 16.35 16.498 16.35 16.75ZM16.665 20.299C16.665 20.845 16.469 21.314 16.077 21.706C15.685 22.098 15.216 22.294 14.67 22.294C14.124 22.294 13.655 22.098 13.263 21.706C12.871 21.314 12.675 20.845 12.675 20.299C12.675 19.753 12.871 19.284 13.263 18.892C13.655 18.5 14.124 18.304 14.67 18.304C15.216 18.304 15.685 18.5 16.077 18.892C16.469 19.284 16.665 19.753 16.665 20.299Z" fill="#323232"/>
</svg>
