<svg width="93" height="52" viewBox="0 0 93 52" fill="none" xmlns="http://www.w3.org/2000/svg">
<path d="M92.1481 24.8319V22.9126L61.985 4.07546V7.91398L46.0622 0L0 23.0311V24.8556L46.0385 5.37867L82.3386 20.6853V26.5853L75.6804 24.3817V27.9359L62.0087 23.8604V16.5388L59.7103 15.6621L46.0622 10.5441V7.20315L0 27.225V29.168L46.0385 15.7095L59.6866 19.9034V23.197L46.0385 19.1452L38.2193 21.5147L0 32.3431V33.8358L38.2193 24.8319V36.3001L0 37.7454V38.9302L38.2193 39.2619V42.6028L0 40.2334V41.0627L38.2193 45.1618L46.0385 45.8727V39.2382H54.5449V27.4146L59.6866 28.315V43.4084L61.985 43.3373V28.7178L66.6765 29.5234V45.4225L46.0622 47.3654L0 42.9108V44.3562L46.0385 51.82L92.1244 44.214V43.053L89.21 43.3373V31.2294L92.1244 31.9166V29.8551L84.1394 27.225V21.491L92.1481 24.8319ZM51.6304 26.917V36.4185L46.0385 36.2053V25.9455L51.6304 26.917ZM69.97 30.0921L74.6615 30.8977V44.6642L69.97 45.1144V30.0921ZM87.9305 30.874L88.0253 43.4084L76.9599 44.451V31.3005V28.2439L82.3386 29.5234V40.7783L84.1631 40.6599V29.9736L87.9305 30.874Z" fill="black"/>
</svg>
