<svg width="345" height="60" viewBox="0 0 345 60" fill="none" xmlns="http://www.w3.org/2000/svg">
<path d="M92.1481 32.8319V30.9126L61.985 12.0755V15.914L46.0622 8L0 31.0311V32.8556L46.0385 13.3787L82.3386 28.6853V34.5853L75.6804 32.3817V35.9359L62.0087 31.8604V24.5388L59.7103 23.6621L46.0622 18.5441V15.2031L0 35.225V37.168L46.0385 23.7095L59.6866 27.9034V31.197L46.0385 27.1452L38.2193 29.5147L0 40.3431V41.8358L38.2193 32.8319V44.3001L0 45.7454V46.9302L38.2193 47.2619V50.6028L0 48.2334V49.0627L38.2193 53.1618L46.0385 53.8727V47.2382H54.5449V35.4146L59.6866 36.315V51.4084L61.985 51.3373V36.7178L66.6765 37.5234V53.4225L46.0622 55.3654L0 50.9108V52.3562L46.0385 59.82L92.1244 52.214V51.053L89.21 51.3373V39.2294L92.1244 39.9166V37.8551L84.1394 35.225V29.491L92.1481 32.8319ZM51.6304 34.917V44.4185L46.0385 44.2053V33.9455L51.6304 34.917ZM69.97 38.0921L74.6615 38.8977V52.6642L69.97 53.1144V38.0921ZM87.9305 38.874L88.0253 51.4084L76.9599 52.451V39.3005V36.2439L82.3386 37.5234V48.7783L84.1631 48.6599V37.9736L87.9305 38.874Z" fill="white"/>
<path d="M121.929 55.9789C120.627 55.9789 119.558 55.5519 118.72 54.6979C117.882 53.852 117.464 52.8028 117.464 51.5503C117.464 50.2978 117.882 49.2486 118.72 48.4027C119.558 47.5487 120.627 47.1217 121.929 47.1217C122.701 47.1217 123.417 47.3088 124.076 47.6829C124.735 48.057 125.247 48.5613 125.613 49.1957L124.625 49.7691C124.381 49.2974 124.015 48.9232 123.527 48.6467C123.047 48.362 122.514 48.2197 121.929 48.2197C120.937 48.2197 120.131 48.5369 119.513 49.1713C118.895 49.7976 118.586 50.5906 118.586 51.5503C118.586 52.5019 118.895 53.2908 119.513 53.9171C120.131 54.5515 120.937 54.8687 121.929 54.8687C122.514 54.8687 123.047 54.7304 123.527 54.4539C124.015 54.1692 124.381 53.7951 124.625 53.3315L125.613 53.8927C125.255 54.5271 124.747 55.0354 124.088 55.4177C123.438 55.7918 122.718 55.9789 121.929 55.9789ZM131.913 55.0517C131.295 55.6698 130.534 55.9789 129.632 55.9789C128.729 55.9789 127.968 55.6698 127.35 55.0517C126.732 54.4336 126.423 53.6731 126.423 52.7703C126.423 51.8675 126.732 51.107 127.35 50.4889C127.968 49.8708 128.729 49.5617 129.632 49.5617C130.534 49.5617 131.295 49.8708 131.913 50.4889C132.539 51.1152 132.852 51.8756 132.852 52.7703C132.852 53.665 132.539 54.4254 131.913 55.0517ZM129.632 54.9419C130.242 54.9419 130.754 54.7345 131.169 54.3197C131.584 53.9049 131.791 53.3884 131.791 52.7703C131.791 52.1522 131.584 51.6357 131.169 51.2209C130.754 50.8061 130.242 50.5987 129.632 50.5987C129.03 50.5987 128.521 50.8061 128.107 51.2209C127.692 51.6357 127.484 52.1522 127.484 52.7703C127.484 53.3884 127.692 53.9049 128.107 54.3197C128.521 54.7345 129.03 54.9419 129.632 54.9419ZM137.159 52.6971C137.834 52.9818 138.172 53.4657 138.172 54.1489C138.172 54.6776 137.965 55.1168 137.55 55.4665C137.135 55.8081 136.562 55.9789 135.83 55.9789C134.61 55.9789 133.792 55.4909 133.377 54.5149L134.268 53.9903C134.496 54.6572 135.02 54.9907 135.842 54.9907C136.24 54.9907 136.553 54.9053 136.781 54.7345C137.009 54.5637 137.123 54.336 137.123 54.0513C137.123 53.8073 137.029 53.608 136.842 53.4535C136.663 53.299 136.419 53.2217 136.11 53.2217H135.22V52.2579H135.878C136.187 52.2579 136.427 52.1847 136.598 52.0383C136.769 51.8838 136.854 51.6764 136.854 51.4161C136.854 51.1477 136.753 50.9362 136.549 50.7817C136.346 50.619 136.074 50.5377 135.732 50.5377C135.049 50.5377 134.585 50.8264 134.341 51.4039L133.475 50.9037C133.906 50.009 134.658 49.5617 135.732 49.5617C136.383 49.5617 136.903 49.7325 137.294 50.0741C137.692 50.4076 137.891 50.8264 137.891 51.3307C137.891 51.9488 137.647 52.4043 137.159 52.6971ZM144.473 49.7203V54.8077H145.314V57.4551H144.265V55.8203H139.69V57.4551H138.641V54.8077H139.385C139.776 54.2709 139.971 53.5186 139.971 52.5507V49.7203H144.473ZM140.593 54.8077H143.423V50.7085H141.02V52.5507C141.02 53.4454 140.878 54.1977 140.593 54.8077ZM151.271 50.7695V49.7203H152.332V55.8203H151.271V54.7711C150.751 55.5763 149.982 55.9789 148.965 55.9789C148.103 55.9789 147.375 55.6698 146.781 55.0517C146.18 54.4254 145.879 53.665 145.879 52.7703C145.879 51.8838 146.18 51.1274 146.781 50.5011C147.383 49.8748 148.111 49.5617 148.965 49.5617C149.982 49.5617 150.751 49.9643 151.271 50.7695ZM149.099 54.9541C149.718 54.9541 150.234 54.7467 150.649 54.3319C151.064 53.9008 151.271 53.3803 151.271 52.7703C151.271 52.1522 151.064 51.6357 150.649 51.2209C150.234 50.798 149.718 50.5865 149.099 50.5865C148.489 50.5865 147.977 50.798 147.562 51.2209C147.147 51.6357 146.94 52.1522 146.94 52.7703C146.94 53.3803 147.147 53.9008 147.562 54.3319C147.977 54.7467 148.489 54.9541 149.099 54.9541ZM158.003 52.6849C158.629 52.9452 158.943 53.4169 158.943 54.1001C158.943 54.6206 158.772 55.0395 158.43 55.3567C158.089 55.6658 157.609 55.8203 156.991 55.8203H153.941V49.7203H156.747C157.348 49.7203 157.816 49.8708 158.15 50.1717C158.491 50.4726 158.662 50.8752 158.662 51.3795C158.662 51.9651 158.442 52.4002 158.003 52.6849ZM156.698 50.6719H154.978V52.2701H156.698C157.316 52.2701 157.625 51.9976 157.625 51.4527C157.625 50.9322 157.316 50.6719 156.698 50.6719ZM154.978 54.8565H156.93C157.239 54.8565 157.474 54.7833 157.637 54.6369C157.808 54.4905 157.893 54.2831 157.893 54.0147C157.893 53.7626 157.808 53.5674 157.637 53.4291C157.474 53.2827 157.239 53.2095 156.93 53.2095H154.978V54.8565ZM165.139 50.7695V49.7203H166.2V55.8203H165.139V54.7711C164.618 55.5763 163.85 55.9789 162.833 55.9789C161.971 55.9789 161.243 55.6698 160.649 55.0517C160.048 54.4254 159.747 53.665 159.747 52.7703C159.747 51.8838 160.048 51.1274 160.649 50.5011C161.251 49.8748 161.979 49.5617 162.833 49.5617C163.85 49.5617 164.618 49.9643 165.139 50.7695ZM162.967 54.9541C163.586 54.9541 164.102 54.7467 164.517 54.3319C164.932 53.9008 165.139 53.3803 165.139 52.7703C165.139 52.1522 164.932 51.6357 164.517 51.2209C164.102 50.798 163.586 50.5865 162.967 50.5865C162.357 50.5865 161.845 50.798 161.43 51.2209C161.015 51.6357 160.808 52.1522 160.808 52.7703C160.808 53.3803 161.015 53.9008 161.43 54.3319C161.845 54.7467 162.357 54.9541 162.967 54.9541ZM169.773 49.7203H172.371V55.8203H171.322V53.6243H170.432L168.724 55.8203H167.43L169.212 53.5633C168.748 53.4494 168.374 53.2217 168.089 52.8801C167.813 52.5385 167.674 52.14 167.674 51.6845C167.674 51.1233 167.874 50.6556 168.272 50.2815C168.671 49.9074 169.171 49.7203 169.773 49.7203ZM169.809 52.6727H171.322V50.7085H169.809C169.5 50.7085 169.24 50.802 169.029 50.9891C168.825 51.168 168.724 51.4039 168.724 51.6967C168.724 51.9814 168.825 52.2172 169.029 52.4043C169.24 52.5832 169.5 52.6727 169.809 52.6727ZM177.03 49.7203H182.313V55.8203H181.251V50.7329H178.091V55.8203H177.03V49.7203ZM187.295 49.5617C188.149 49.5617 188.877 49.8748 189.479 50.5011C190.081 51.1274 190.382 51.8838 190.382 52.7703C190.382 53.665 190.081 54.4254 189.479 55.0517C188.886 55.6698 188.158 55.9789 187.295 55.9789C186.287 55.9789 185.518 55.5763 184.99 54.7711V58.2603H183.928V49.7203H184.99V50.7695C185.518 49.9643 186.287 49.5617 187.295 49.5617ZM187.161 54.9541C187.771 54.9541 188.284 54.7467 188.698 54.3319C189.113 53.9008 189.321 53.3803 189.321 52.7703C189.321 52.1522 189.113 51.6357 188.698 51.2209C188.284 50.798 187.771 50.5865 187.161 50.5865C186.543 50.5865 186.027 50.798 185.612 51.2209C185.197 51.6357 184.99 52.1522 184.99 52.7703C184.99 53.3803 185.197 53.9008 185.612 54.3319C186.027 54.7467 186.543 54.9541 187.161 54.9541ZM197.505 53.2583H192.393C192.498 53.7951 192.747 54.218 193.137 54.5271C193.527 54.828 194.015 54.9785 194.601 54.9785C195.406 54.9785 195.992 54.6816 196.358 54.0879L197.261 54.6003C196.659 55.5194 195.764 55.9789 194.577 55.9789C193.617 55.9789 192.828 55.678 192.21 55.0761C191.608 54.458 191.307 53.6894 191.307 52.7703C191.307 51.8431 191.604 51.0786 192.198 50.4767C192.791 49.8667 193.56 49.5617 194.503 49.5617C195.398 49.5617 196.126 49.8789 196.687 50.5133C197.256 51.1314 197.541 51.8878 197.541 52.7825C197.541 52.937 197.529 53.0956 197.505 53.2583ZM194.503 50.5621C193.942 50.5621 193.47 50.7207 193.088 51.0379C192.714 51.3551 192.482 51.7862 192.393 52.3311H196.468C196.378 51.7699 196.154 51.3348 195.797 51.0257C195.439 50.7166 195.008 50.5621 194.503 50.5621ZM201.616 55.9789C200.697 55.9789 199.933 55.6739 199.323 55.0639C198.713 54.4458 198.408 53.6812 198.408 52.7703C198.408 51.8594 198.713 51.0989 199.323 50.4889C199.933 49.8708 200.697 49.5617 201.616 49.5617C202.218 49.5617 202.759 49.7081 203.239 50.0009C203.719 50.2856 204.077 50.6719 204.313 51.1599L203.422 51.6723C203.267 51.347 203.027 51.0867 202.702 50.8915C202.385 50.6963 202.023 50.5987 201.616 50.5987C201.006 50.5987 200.494 50.8061 200.079 51.2209C199.672 51.6438 199.469 52.1603 199.469 52.7703C199.469 53.3722 199.672 53.8846 200.079 54.3075C200.494 54.7223 201.006 54.9297 201.616 54.9297C202.023 54.9297 202.389 54.8362 202.714 54.6491C203.04 54.4539 203.288 54.1936 203.459 53.8683L204.361 54.3929C204.093 54.8809 203.715 55.2672 203.227 55.5519C202.739 55.8366 202.202 55.9789 201.616 55.9789ZM204.631 49.7203H209.852V50.7451H207.778V55.8203H206.717V50.7451H204.631V49.7203ZM211.832 54.0025L215.211 49.7203H216.065V55.8203H215.016V51.5381L211.637 55.8203H210.783V49.7203H211.832V54.0025ZM222.622 52.6727L225.184 55.8203H223.939L221.658 52.9289V55.8203H220.609V52.9289L218.327 55.8203H217.095L219.645 52.6727L217.217 49.7203H218.449L220.609 52.4165V49.7203H221.658V52.4165L223.817 49.7203H225.062L222.622 52.6727ZM233.471 52.2579V49.7203H234.532V55.8203H233.471V53.2705H230.311V55.8203H229.249V49.7203H230.311V52.2579H233.471ZM241.198 50.7695V49.7203H242.26V55.8203H241.198V54.7711C240.678 55.5763 239.909 55.9789 238.893 55.9789C238.03 55.9789 237.303 55.6698 236.709 55.0517C236.107 54.4254 235.806 53.665 235.806 52.7703C235.806 51.8838 236.107 51.1274 236.709 50.5011C237.311 49.8748 238.039 49.5617 238.893 49.5617C239.909 49.5617 240.678 49.9643 241.198 50.7695ZM239.027 54.9541C239.645 54.9541 240.161 54.7467 240.576 54.3319C240.991 53.9008 241.198 53.3803 241.198 52.7703C241.198 52.1522 240.991 51.6357 240.576 51.2209C240.161 50.798 239.645 50.5865 239.027 50.5865C238.417 50.5865 237.904 50.798 237.49 51.2209C237.075 51.6357 236.867 52.1522 236.867 52.7703C236.867 53.3803 237.075 53.9008 237.49 54.3319C237.904 54.7467 238.417 54.9541 239.027 54.9541ZM250.98 52.6849C251.607 52.9452 251.92 53.4169 251.92 54.1001C251.92 54.6206 251.749 55.0395 251.407 55.3567C251.066 55.6658 250.586 55.8203 249.968 55.8203H246.918V49.7203H249.724C250.326 49.7203 250.793 49.8708 251.127 50.1717C251.468 50.4726 251.639 50.8752 251.639 51.3795C251.639 51.9651 251.42 52.4002 250.98 52.6849ZM249.675 50.6719H247.955V52.2701H249.675C250.293 52.2701 250.602 51.9976 250.602 51.4527C250.602 50.9322 250.293 50.6719 249.675 50.6719ZM247.955 54.8565H249.907C250.216 54.8565 250.452 54.7833 250.614 54.6369C250.785 54.4905 250.871 54.2831 250.871 54.0147C250.871 53.7626 250.785 53.5674 250.614 53.4291C250.452 53.2827 250.216 53.2095 249.907 53.2095H247.955V54.8565ZM258.116 50.7695V49.7203H259.178V55.8203H258.116V54.7711C257.596 55.5763 256.827 55.9789 255.811 55.9789C254.948 55.9789 254.22 55.6698 253.627 55.0517C253.025 54.4254 252.724 53.665 252.724 52.7703C252.724 51.8838 253.025 51.1274 253.627 50.5011C254.229 49.8748 254.957 49.5617 255.811 49.5617C256.827 49.5617 257.596 49.9643 258.116 50.7695ZM255.945 54.9541C256.563 54.9541 257.079 54.7467 257.494 54.3319C257.909 53.9008 258.116 53.3803 258.116 52.7703C258.116 52.1522 257.909 51.6357 257.494 51.2209C257.079 50.798 256.563 50.5865 255.945 50.5865C255.335 50.5865 254.822 50.798 254.408 51.2209C253.993 51.6357 253.785 52.1522 253.785 52.7703C253.785 53.3803 253.993 53.9008 254.408 54.3319C254.822 54.7467 255.335 54.9541 255.945 54.9541ZM268.081 54.8077V49.7203H269.143V55.8203H260.786V49.7203H261.847V54.8077H264.434V49.7203H265.495V54.8077H268.081ZM276.626 53.2583H271.514C271.62 53.7951 271.868 54.218 272.258 54.5271C272.649 54.828 273.137 54.9785 273.722 54.9785C274.527 54.9785 275.113 54.6816 275.479 54.0879L276.382 54.6003C275.78 55.5194 274.885 55.9789 273.698 55.9789C272.738 55.9789 271.949 55.678 271.331 55.0761C270.729 54.458 270.428 53.6894 270.428 52.7703C270.428 51.8431 270.725 51.0786 271.319 50.4767C271.913 49.8667 272.681 49.5617 273.625 49.5617C274.519 49.5617 275.247 49.8789 275.808 50.5133C276.378 51.1314 276.662 51.8878 276.662 52.7825C276.662 52.937 276.65 53.0956 276.626 53.2583ZM273.625 50.5621C273.063 50.5621 272.592 50.7207 272.209 51.0379C271.835 51.3551 271.604 51.7862 271.514 52.3311H275.589C275.499 51.7699 275.276 51.3348 274.918 51.0257C274.56 50.7166 274.129 50.5621 273.625 50.5621ZM282.177 48.8053H278.883V47.8781H282.177V48.8053ZM278.932 54.0025L282.311 49.7203H283.165V55.8203H282.116V51.5381L278.737 55.8203H277.883V49.7203H278.932V54.0025ZM291.125 52.6971C291.8 52.9818 292.137 53.4657 292.137 54.1489C292.137 54.6776 291.93 55.1168 291.515 55.4665C291.1 55.8081 290.527 55.9789 289.795 55.9789C288.575 55.9789 287.758 55.4909 287.343 54.5149L288.233 53.9903C288.461 54.6572 288.986 54.9907 289.807 54.9907C290.206 54.9907 290.519 54.9053 290.747 54.7345C290.974 54.5637 291.088 54.336 291.088 54.0513C291.088 53.8073 290.995 53.608 290.808 53.4535C290.629 53.299 290.385 53.2217 290.076 53.2217H289.185V52.2579H289.844C290.153 52.2579 290.393 52.1847 290.564 52.0383C290.734 51.8838 290.82 51.6764 290.82 51.4161C290.82 51.1477 290.718 50.9362 290.515 50.7817C290.311 50.619 290.039 50.5377 289.697 50.5377C289.014 50.5377 288.551 50.8264 288.307 51.4039L287.44 50.9037C287.871 50.009 288.624 49.5617 289.697 49.5617C290.348 49.5617 290.869 49.7325 291.259 50.0741C291.658 50.4076 291.857 50.8264 291.857 51.3307C291.857 51.9488 291.613 52.4043 291.125 52.6971ZM299.143 53.2583H294.032C294.137 53.7951 294.385 54.218 294.776 54.5271C295.166 54.828 295.654 54.9785 296.24 54.9785C297.045 54.9785 297.631 54.6816 297.997 54.0879L298.899 54.6003C298.298 55.5194 297.403 55.9789 296.215 55.9789C295.256 55.9789 294.467 55.678 293.849 55.0761C293.247 54.458 292.946 53.6894 292.946 52.7703C292.946 51.8431 293.243 51.0786 293.836 50.4767C294.43 49.8667 295.199 49.5617 296.142 49.5617C297.037 49.5617 297.765 49.8789 298.326 50.5133C298.895 51.1314 299.18 51.8878 299.18 52.7825C299.18 52.937 299.168 53.0956 299.143 53.2583ZM296.142 50.5621C295.581 50.5621 295.109 50.7207 294.727 51.0379C294.353 51.3551 294.121 51.7862 294.032 52.3311H298.106C298.017 51.7699 297.793 51.3348 297.435 51.0257C297.078 50.7166 296.646 50.5621 296.142 50.5621ZM305.366 49.7203H306.5V55.8203H305.463V51.3917L303.523 54.5149H303.389L301.449 51.3917V55.8203H300.4V49.7203H301.535L303.45 52.8069L305.366 49.7203ZM308.682 49.7203H313.208V55.8203H312.146V50.7451H309.743V53.2339C309.743 54.2099 309.548 54.9053 309.157 55.3201C308.767 55.7268 308.194 55.8935 307.437 55.8203V54.8199C307.86 54.8768 308.173 54.7833 308.377 54.5393C308.58 54.2872 308.682 53.8439 308.682 53.2095V49.7203ZM320.672 53.2583H315.56C315.666 53.7951 315.914 54.218 316.305 54.5271C316.695 54.828 317.183 54.9785 317.769 54.9785C318.574 54.9785 319.159 54.6816 319.525 54.0879L320.428 54.6003C319.826 55.5194 318.932 55.9789 317.744 55.9789C316.784 55.9789 315.995 55.678 315.377 55.0761C314.775 54.458 314.475 53.6894 314.475 52.7703C314.475 51.8431 314.771 51.0786 315.365 50.4767C315.959 49.8667 316.727 49.5617 317.671 49.5617C318.566 49.5617 319.294 49.8789 319.855 50.5133C320.424 51.1314 320.709 51.8878 320.709 52.7825C320.709 52.937 320.697 53.0956 320.672 53.2583ZM317.671 50.5621C317.11 50.5621 316.638 50.7207 316.256 51.0379C315.882 51.3551 315.65 51.7862 315.56 52.3311H319.635C319.546 51.7699 319.322 51.3348 318.964 51.0257C318.606 50.7166 318.175 50.5621 317.671 50.5621Z" fill="white"/>
<path d="M117.27 39.3798V8.46875H127.695C131.918 8.46875 135.254 9.09427 137.704 10.3453C140.154 11.5963 142.082 13.4729 143.542 15.9229C145.001 18.3728 145.731 21.0313 145.731 23.9503C145.731 26.0354 145.314 28.0162 144.532 29.8928C143.75 31.7693 142.604 33.4374 141.144 34.8969C139.632 36.3565 137.86 37.5032 135.879 38.233C134.732 38.7022 133.638 39.0149 132.647 39.1713C131.657 39.3277 129.833 39.3798 127.07 39.3798H117.27ZM127.226 12.4304H121.701V35.4703H127.383C129.624 35.4703 131.344 35.3139 132.543 35.0012C133.742 34.6884 134.785 34.3235 135.619 33.8544C136.453 33.3853 137.182 32.8119 137.86 32.1342C140.049 29.8928 141.144 27.1301 141.144 23.7418C141.144 20.4057 139.997 17.6952 137.756 15.6101C136.922 14.8282 135.983 14.2027 134.889 13.6814C133.794 13.1601 132.804 12.8474 131.865 12.691C130.927 12.4825 129.363 12.4304 127.226 12.4304Z" fill="white"/>
<path d="M166.478 8C171.274 8 175.235 9.51168 178.415 12.535C181.595 15.5584 183.21 19.3636 183.21 23.9507C183.21 28.5379 181.595 32.291 178.415 35.3143C175.183 38.2855 171.169 39.7972 166.269 39.7972C161.578 39.7972 157.721 38.2855 154.593 35.3143C151.465 32.3431 149.902 28.59 149.902 24.055C149.902 19.4157 151.465 15.6105 154.593 12.5871C157.721 9.51166 161.682 8 166.478 8ZM166.634 12.2223C163.09 12.2223 160.171 13.3169 157.877 15.5584C155.583 17.7998 154.437 20.6146 154.437 24.055C154.437 27.3911 155.583 30.1538 157.877 32.3952C160.171 34.6367 163.038 35.7313 166.478 35.7313C169.918 35.7313 172.837 34.5846 175.131 32.3431C177.424 30.1017 178.623 27.2868 178.623 23.8986C178.623 20.6146 177.477 17.8519 175.131 15.6105C172.837 13.369 170.022 12.2223 166.634 12.2223Z" fill="white"/>
<path d="M213.287 8.46875H217.458V39.4319H212.975V15.3495L203.436 27.3386H202.602L192.958 15.3495V39.4319H188.527V8.46875H192.75L203.019 21.1876L213.287 8.46875Z" fill="white"/>
<path d="M224.13 8.46875H228.56V39.4319H224.13V8.46875Z" fill="white"/>
<path d="M260.096 8.46875H264.319V39.4319H260.513L239.819 15.558V39.4319H235.649V8.46875H239.246L260.148 32.5512V8.46875H260.096Z" fill="white"/>
<path d="M292.466 8.46875H296.949V26.0354C296.949 28.4332 296.793 30.2055 296.428 31.4044C296.063 32.6034 295.646 33.6459 295.125 34.4278C294.604 35.2097 293.978 35.9394 293.248 36.565C290.798 38.7022 287.567 39.7447 283.605 39.7447C279.591 39.7447 276.359 38.7022 273.909 36.6171C273.18 35.9916 272.554 35.2618 272.033 34.4278C271.512 33.6459 271.095 32.6555 270.782 31.4566C270.469 30.3098 270.26 28.4332 270.26 25.9833V8.46875H274.691V26.0354C274.691 28.9545 275.004 30.9874 275.682 32.1342C276.359 33.281 277.35 34.1672 278.705 34.8969C280.06 35.5746 281.676 35.9395 283.501 35.9395C286.107 35.9395 288.296 35.2618 289.912 33.8544C290.798 33.1246 291.424 32.2385 291.789 31.2481C292.154 30.2577 292.362 28.5375 292.362 26.0875V8.46875H292.466Z" fill="white"/>
<path d="M310.712 26.4524L307.324 24.4195C305.186 23.1163 303.727 21.8653 302.789 20.6143C301.902 19.3632 301.433 17.9037 301.433 16.2877C301.433 13.8378 302.267 11.857 303.988 10.3453C305.656 8.83365 307.897 8.05176 310.608 8.05176C313.214 8.05176 315.56 8.78152 317.749 10.2411V15.2973C315.508 13.1602 313.11 12.0655 310.555 12.0655C309.096 12.0655 307.897 12.3783 306.959 13.0559C306.02 13.7336 305.551 14.5676 305.551 15.6101C305.551 16.5484 305.916 17.3824 306.594 18.2164C307.272 19.0505 308.366 19.8845 309.93 20.7706L313.318 22.7514C317.071 24.9929 319 27.8598 319 31.3523C319 33.8544 318.166 35.8352 316.498 37.399C314.83 38.9628 312.693 39.7447 310.034 39.7447C306.959 39.7447 304.196 38.8064 301.694 36.9299V31.3002C304.092 34.3235 306.855 35.8352 310.034 35.8352C311.442 35.8352 312.588 35.4703 313.527 34.6884C314.465 33.9065 314.934 32.9683 314.934 31.7693C314.83 29.9449 313.475 28.1726 310.712 26.4524Z" fill="white"/>
</svg>
