<svg width="345" height="60" viewBox="0 0 345 60" fill="none" xmlns="http://www.w3.org/2000/svg">
<path d="M92.1481 32.8319V30.9126L61.985 12.0755V15.914L46.0622 8L0 31.0311V32.8556L46.0385 13.3787L82.3386 28.6853V34.5853L75.6804 32.3817V35.9359L62.0087 31.8604V24.5388L59.7103 23.6621L46.0622 18.5441V15.2031L0 35.225V37.168L46.0385 23.7095L59.6866 27.9034V31.197L46.0385 27.1452L38.2193 29.5147L0 40.3431V41.8358L38.2193 32.8319V44.3001L0 45.7454V46.9302L38.2193 47.2619V50.6028L0 48.2334V49.0627L38.2193 53.1618L46.0385 53.8727V47.2382H54.5449V35.4146L59.6866 36.315V51.4084L61.985 51.3373V36.7178L66.6765 37.5234V53.4225L46.0622 55.3654L0 50.9108V52.3562L46.0385 59.82L92.1244 52.214V51.053L89.21 51.3373V39.2294L92.1244 39.9166V37.8551L84.1394 35.225V29.491L92.1481 32.8319ZM51.6304 34.917V44.4185L46.0385 44.2053V33.9455L51.6304 34.917ZM69.97 38.0921L74.6615 38.8977V52.6642L69.97 53.1144V38.0921ZM87.9305 38.874L88.0253 51.4084L76.9599 52.451V39.3005V36.2439L82.3386 37.5234V48.7783L84.1631 48.6599V37.9736L87.9305 38.874Z" fill="black"/>
<path d="M121.929 55.9784C120.627 55.9784 119.558 55.5514 118.72 54.6974C117.882 53.8516 117.464 52.8024 117.464 51.5498C117.464 50.2973 117.882 49.2481 118.72 48.4022C119.558 47.5482 120.627 47.1212 121.929 47.1212C122.701 47.1212 123.417 47.3083 124.076 47.6824C124.735 48.0566 125.247 48.5608 125.613 49.1952L124.625 49.7686C124.381 49.2969 124.015 48.9228 123.527 48.6462C123.047 48.3616 122.514 48.2192 121.929 48.2192C120.937 48.2192 120.131 48.5364 119.513 49.1708C118.895 49.7971 118.586 50.5901 118.586 51.5498C118.586 52.5014 118.895 53.2904 119.513 53.9166C120.131 54.551 120.937 54.8682 121.929 54.8682C122.514 54.8682 123.047 54.73 123.527 54.4534C124.015 54.1688 124.381 53.7946 124.625 53.331L125.613 53.8922C125.255 54.5266 124.747 55.035 124.088 55.4172C123.438 55.7914 122.718 55.9784 121.929 55.9784ZM131.913 55.0512C131.295 55.6694 130.534 55.9784 129.632 55.9784C128.729 55.9784 127.968 55.6694 127.35 55.0512C126.732 54.4331 126.423 53.6726 126.423 52.7698C126.423 51.867 126.732 51.1066 127.35 50.4884C127.968 49.8703 128.729 49.5612 129.632 49.5612C130.534 49.5612 131.295 49.8703 131.913 50.4884C132.539 51.1147 132.852 51.8752 132.852 52.7698C132.852 53.6645 132.539 54.425 131.913 55.0512ZM129.632 54.9414C130.242 54.9414 130.754 54.734 131.169 54.3192C131.584 53.9044 131.791 53.388 131.791 52.7698C131.791 52.1517 131.584 51.6352 131.169 51.2204C130.754 50.8056 130.242 50.5982 129.632 50.5982C129.03 50.5982 128.521 50.8056 128.107 51.2204C127.692 51.6352 127.484 52.1517 127.484 52.7698C127.484 53.388 127.692 53.9044 128.107 54.3192C128.521 54.734 129.03 54.9414 129.632 54.9414ZM137.159 52.6966C137.834 52.9813 138.172 53.4652 138.172 54.1484C138.172 54.6771 137.965 55.1163 137.55 55.466C137.135 55.8076 136.562 55.9784 135.83 55.9784C134.61 55.9784 133.792 55.4904 133.377 54.5144L134.268 53.9898C134.496 54.6568 135.02 54.9902 135.842 54.9902C136.24 54.9902 136.553 54.9048 136.781 54.734C137.009 54.5632 137.123 54.3355 137.123 54.0508C137.123 53.8068 137.029 53.6076 136.842 53.453C136.663 53.2985 136.419 53.2212 136.11 53.2212H135.22V52.2574H135.878C136.187 52.2574 136.427 52.1842 136.598 52.0378C136.769 51.8833 136.854 51.6759 136.854 51.4156C136.854 51.1472 136.753 50.9358 136.549 50.7812C136.346 50.6186 136.074 50.5372 135.732 50.5372C135.049 50.5372 134.585 50.826 134.341 51.4034L133.475 50.9032C133.906 50.0086 134.658 49.5612 135.732 49.5612C136.383 49.5612 136.903 49.732 137.294 50.0736C137.692 50.4071 137.891 50.826 137.891 51.3302C137.891 51.9484 137.647 52.4038 137.159 52.6966ZM144.473 49.7198V54.8072H145.314V57.4546H144.265V55.8198H139.69V57.4546H138.641V54.8072H139.385C139.776 54.2704 139.971 53.5181 139.971 52.5502V49.7198H144.473ZM140.593 54.8072H143.423V50.708H141.02V52.5502C141.02 53.4449 140.878 54.1972 140.593 54.8072ZM151.271 50.769V49.7198H152.332V55.8198H151.271V54.7706C150.751 55.5758 149.982 55.9784 148.965 55.9784C148.103 55.9784 147.375 55.6694 146.781 55.0512C146.18 54.425 145.879 53.6645 145.879 52.7698C145.879 51.8833 146.18 51.1269 146.781 50.5006C147.383 49.8744 148.111 49.5612 148.965 49.5612C149.982 49.5612 150.751 49.9638 151.271 50.769ZM149.099 54.9536C149.718 54.9536 150.234 54.7462 150.649 54.3314C151.064 53.9004 151.271 53.3798 151.271 52.7698C151.271 52.1517 151.064 51.6352 150.649 51.2204C150.234 50.7975 149.718 50.586 149.099 50.586C148.489 50.586 147.977 50.7975 147.562 51.2204C147.147 51.6352 146.94 52.1517 146.94 52.7698C146.94 53.3798 147.147 53.9004 147.562 54.3314C147.977 54.7462 148.489 54.9536 149.099 54.9536ZM158.003 52.6844C158.629 52.9447 158.943 53.4164 158.943 54.0996C158.943 54.6202 158.772 55.039 158.43 55.3562C158.089 55.6653 157.609 55.8198 156.991 55.8198H153.941V49.7198H156.747C157.348 49.7198 157.816 49.8703 158.15 50.1712C158.491 50.4722 158.662 50.8748 158.662 51.379C158.662 51.9646 158.442 52.3998 158.003 52.6844ZM156.698 50.6714H154.978V52.2696H156.698C157.316 52.2696 157.625 51.9972 157.625 51.4522C157.625 50.9317 157.316 50.6714 156.698 50.6714ZM154.978 54.856H156.93C157.239 54.856 157.474 54.7828 157.637 54.6364C157.808 54.49 157.893 54.2826 157.893 54.0142C157.893 53.7621 157.808 53.5669 157.637 53.4286C157.474 53.2822 157.239 53.209 156.93 53.209H154.978V54.856ZM165.139 50.769V49.7198H166.2V55.8198H165.139V54.7706C164.618 55.5758 163.85 55.9784 162.833 55.9784C161.971 55.9784 161.243 55.6694 160.649 55.0512C160.048 54.425 159.747 53.6645 159.747 52.7698C159.747 51.8833 160.048 51.1269 160.649 50.5006C161.251 49.8744 161.979 49.5612 162.833 49.5612C163.85 49.5612 164.618 49.9638 165.139 50.769ZM162.967 54.9536C163.586 54.9536 164.102 54.7462 164.517 54.3314C164.932 53.9004 165.139 53.3798 165.139 52.7698C165.139 52.1517 164.932 51.6352 164.517 51.2204C164.102 50.7975 163.586 50.586 162.967 50.586C162.357 50.586 161.845 50.7975 161.43 51.2204C161.015 51.6352 160.808 52.1517 160.808 52.7698C160.808 53.3798 161.015 53.9004 161.43 54.3314C161.845 54.7462 162.357 54.9536 162.967 54.9536ZM169.773 49.7198H172.371V55.8198H171.322V53.6238H170.432L168.724 55.8198H167.43L169.212 53.5628C168.748 53.449 168.374 53.2212 168.089 52.8796C167.813 52.538 167.674 52.1395 167.674 51.684C167.674 51.1228 167.874 50.6552 168.272 50.281C168.671 49.9069 169.171 49.7198 169.773 49.7198ZM169.809 52.6722H171.322V50.708H169.809C169.5 50.708 169.24 50.8016 169.029 50.9886C168.825 51.1676 168.724 51.4034 168.724 51.6962C168.724 51.9809 168.825 52.2168 169.029 52.4038C169.24 52.5828 169.5 52.6722 169.809 52.6722ZM177.03 49.7198H182.313V55.8198H181.251V50.7324H178.091V55.8198H177.03V49.7198ZM187.295 49.5612C188.149 49.5612 188.877 49.8744 189.479 50.5006C190.081 51.1269 190.382 51.8833 190.382 52.7698C190.382 53.6645 190.081 54.425 189.479 55.0512C188.886 55.6694 188.158 55.9784 187.295 55.9784C186.287 55.9784 185.518 55.5758 184.99 54.7706V58.2598H183.928V49.7198H184.99V50.769C185.518 49.9638 186.287 49.5612 187.295 49.5612ZM187.161 54.9536C187.771 54.9536 188.284 54.7462 188.698 54.3314C189.113 53.9004 189.321 53.3798 189.321 52.7698C189.321 52.1517 189.113 51.6352 188.698 51.2204C188.284 50.7975 187.771 50.586 187.161 50.586C186.543 50.586 186.027 50.7975 185.612 51.2204C185.197 51.6352 184.99 52.1517 184.99 52.7698C184.99 53.3798 185.197 53.9004 185.612 54.3314C186.027 54.7462 186.543 54.9536 187.161 54.9536ZM197.505 53.2578H192.393C192.498 53.7946 192.747 54.2176 193.137 54.5266C193.527 54.8276 194.015 54.978 194.601 54.978C195.406 54.978 195.992 54.6812 196.358 54.0874L197.261 54.5998C196.659 55.5189 195.764 55.9784 194.577 55.9784C193.617 55.9784 192.828 55.6775 192.21 55.0756C191.608 54.4575 191.307 53.6889 191.307 52.7698C191.307 51.8426 191.604 51.0781 192.198 50.4762C192.791 49.8662 193.56 49.5612 194.503 49.5612C195.398 49.5612 196.126 49.8784 196.687 50.5128C197.256 51.131 197.541 51.8874 197.541 52.782C197.541 52.9366 197.529 53.0952 197.505 53.2578ZM194.503 50.5616C193.942 50.5616 193.47 50.7202 193.088 51.0374C192.714 51.3546 192.482 51.7857 192.393 52.3306H196.468C196.378 51.7694 196.154 51.3343 195.797 51.0252C195.439 50.7162 195.008 50.5616 194.503 50.5616ZM201.616 55.9784C200.697 55.9784 199.933 55.6734 199.323 55.0634C198.713 54.4453 198.408 53.6808 198.408 52.7698C198.408 51.8589 198.713 51.0984 199.323 50.4884C199.933 49.8703 200.697 49.5612 201.616 49.5612C202.218 49.5612 202.759 49.7076 203.239 50.0004C203.719 50.2851 204.077 50.6714 204.313 51.1594L203.422 51.6718C203.267 51.3465 203.027 51.0862 202.702 50.891C202.385 50.6958 202.023 50.5982 201.616 50.5982C201.006 50.5982 200.494 50.8056 200.079 51.2204C199.672 51.6434 199.469 52.1598 199.469 52.7698C199.469 53.3717 199.672 53.8841 200.079 54.307C200.494 54.7218 201.006 54.9292 201.616 54.9292C202.023 54.9292 202.389 54.8357 202.714 54.6486C203.04 54.4534 203.288 54.1932 203.459 53.8678L204.361 54.3924C204.093 54.8804 203.715 55.2668 203.227 55.5514C202.739 55.8361 202.202 55.9784 201.616 55.9784ZM204.631 49.7198H209.852V50.7446H207.778V55.8198H206.717V50.7446H204.631V49.7198ZM211.832 54.002L215.211 49.7198H216.065V55.8198H215.016V51.5376L211.637 55.8198H210.783V49.7198H211.832V54.002ZM222.622 52.6722L225.184 55.8198H223.939L221.658 52.9284V55.8198H220.609V52.9284L218.327 55.8198H217.095L219.645 52.6722L217.217 49.7198H218.449L220.609 52.416V49.7198H221.658V52.416L223.817 49.7198H225.062L222.622 52.6722ZM233.471 52.2574V49.7198H234.532V55.8198H233.471V53.27H230.311V55.8198H229.249V49.7198H230.311V52.2574H233.471ZM241.198 50.769V49.7198H242.26V55.8198H241.198V54.7706C240.678 55.5758 239.909 55.9784 238.893 55.9784C238.03 55.9784 237.303 55.6694 236.709 55.0512C236.107 54.425 235.806 53.6645 235.806 52.7698C235.806 51.8833 236.107 51.1269 236.709 50.5006C237.311 49.8744 238.039 49.5612 238.893 49.5612C239.909 49.5612 240.678 49.9638 241.198 50.769ZM239.027 54.9536C239.645 54.9536 240.161 54.7462 240.576 54.3314C240.991 53.9004 241.198 53.3798 241.198 52.7698C241.198 52.1517 240.991 51.6352 240.576 51.2204C240.161 50.7975 239.645 50.586 239.027 50.586C238.417 50.586 237.904 50.7975 237.49 51.2204C237.075 51.6352 236.867 52.1517 236.867 52.7698C236.867 53.3798 237.075 53.9004 237.49 54.3314C237.904 54.7462 238.417 54.9536 239.027 54.9536ZM250.98 52.6844C251.607 52.9447 251.92 53.4164 251.92 54.0996C251.92 54.6202 251.749 55.039 251.407 55.3562C251.066 55.6653 250.586 55.8198 249.968 55.8198H246.918V49.7198H249.724C250.326 49.7198 250.793 49.8703 251.127 50.1712C251.468 50.4722 251.639 50.8748 251.639 51.379C251.639 51.9646 251.42 52.3998 250.98 52.6844ZM249.675 50.6714H247.955V52.2696H249.675C250.293 52.2696 250.602 51.9972 250.602 51.4522C250.602 50.9317 250.293 50.6714 249.675 50.6714ZM247.955 54.856H249.907C250.216 54.856 250.452 54.7828 250.614 54.6364C250.785 54.49 250.871 54.2826 250.871 54.0142C250.871 53.7621 250.785 53.5669 250.614 53.4286C250.452 53.2822 250.216 53.209 249.907 53.209H247.955V54.856ZM258.116 50.769V49.7198H259.178V55.8198H258.116V54.7706C257.596 55.5758 256.827 55.9784 255.811 55.9784C254.948 55.9784 254.22 55.6694 253.627 55.0512C253.025 54.425 252.724 53.6645 252.724 52.7698C252.724 51.8833 253.025 51.1269 253.627 50.5006C254.229 49.8744 254.957 49.5612 255.811 49.5612C256.827 49.5612 257.596 49.9638 258.116 50.769ZM255.945 54.9536C256.563 54.9536 257.079 54.7462 257.494 54.3314C257.909 53.9004 258.116 53.3798 258.116 52.7698C258.116 52.1517 257.909 51.6352 257.494 51.2204C257.079 50.7975 256.563 50.586 255.945 50.586C255.335 50.586 254.822 50.7975 254.408 51.2204C253.993 51.6352 253.785 52.1517 253.785 52.7698C253.785 53.3798 253.993 53.9004 254.408 54.3314C254.822 54.7462 255.335 54.9536 255.945 54.9536ZM268.081 54.8072V49.7198H269.143V55.8198H260.786V49.7198H261.847V54.8072H264.434V49.7198H265.495V54.8072H268.081ZM276.626 53.2578H271.514C271.62 53.7946 271.868 54.2176 272.258 54.5266C272.649 54.8276 273.137 54.978 273.722 54.978C274.527 54.978 275.113 54.6812 275.479 54.0874L276.382 54.5998C275.78 55.5189 274.885 55.9784 273.698 55.9784C272.738 55.9784 271.949 55.6775 271.331 55.0756C270.729 54.4575 270.428 53.6889 270.428 52.7698C270.428 51.8426 270.725 51.0781 271.319 50.4762C271.913 49.8662 272.681 49.5612 273.625 49.5612C274.519 49.5612 275.247 49.8784 275.808 50.5128C276.378 51.131 276.662 51.8874 276.662 52.782C276.662 52.9366 276.65 53.0952 276.626 53.2578ZM273.625 50.5616C273.063 50.5616 272.592 50.7202 272.209 51.0374C271.835 51.3546 271.604 51.7857 271.514 52.3306H275.589C275.499 51.7694 275.276 51.3343 274.918 51.0252C274.56 50.7162 274.129 50.5616 273.625 50.5616ZM282.177 48.8048H278.883V47.8776H282.177V48.8048ZM278.932 54.002L282.311 49.7198H283.165V55.8198H282.116V51.5376L278.737 55.8198H277.883V49.7198H278.932V54.002ZM291.125 52.6966C291.8 52.9813 292.137 53.4652 292.137 54.1484C292.137 54.6771 291.93 55.1163 291.515 55.466C291.1 55.8076 290.527 55.9784 289.795 55.9784C288.575 55.9784 287.758 55.4904 287.343 54.5144L288.233 53.9898C288.461 54.6568 288.986 54.9902 289.807 54.9902C290.206 54.9902 290.519 54.9048 290.747 54.734C290.974 54.5632 291.088 54.3355 291.088 54.0508C291.088 53.8068 290.995 53.6076 290.808 53.453C290.629 53.2985 290.385 53.2212 290.076 53.2212H289.185V52.2574H289.844C290.153 52.2574 290.393 52.1842 290.564 52.0378C290.734 51.8833 290.82 51.6759 290.82 51.4156C290.82 51.1472 290.718 50.9358 290.515 50.7812C290.311 50.6186 290.039 50.5372 289.697 50.5372C289.014 50.5372 288.551 50.826 288.307 51.4034L287.44 50.9032C287.871 50.0086 288.624 49.5612 289.697 49.5612C290.348 49.5612 290.869 49.732 291.259 50.0736C291.658 50.4071 291.857 50.826 291.857 51.3302C291.857 51.9484 291.613 52.4038 291.125 52.6966ZM299.143 53.2578H294.032C294.137 53.7946 294.385 54.2176 294.776 54.5266C295.166 54.8276 295.654 54.978 296.24 54.978C297.045 54.978 297.631 54.6812 297.997 54.0874L298.899 54.5998C298.298 55.5189 297.403 55.9784 296.215 55.9784C295.256 55.9784 294.467 55.6775 293.849 55.0756C293.247 54.4575 292.946 53.6889 292.946 52.7698C292.946 51.8426 293.243 51.0781 293.836 50.4762C294.43 49.8662 295.199 49.5612 296.142 49.5612C297.037 49.5612 297.765 49.8784 298.326 50.5128C298.895 51.131 299.18 51.8874 299.18 52.782C299.18 52.9366 299.168 53.0952 299.143 53.2578ZM296.142 50.5616C295.581 50.5616 295.109 50.7202 294.727 51.0374C294.353 51.3546 294.121 51.7857 294.032 52.3306H298.106C298.017 51.7694 297.793 51.3343 297.435 51.0252C297.078 50.7162 296.646 50.5616 296.142 50.5616ZM305.366 49.7198H306.5V55.8198H305.463V51.3912L303.523 54.5144H303.389L301.449 51.3912V55.8198H300.4V49.7198H301.535L303.45 52.8064L305.366 49.7198ZM308.682 49.7198H313.208V55.8198H312.146V50.7446H309.743V53.2334C309.743 54.2094 309.548 54.9048 309.157 55.3196C308.767 55.7263 308.194 55.893 307.437 55.8198V54.8194C307.86 54.8764 308.173 54.7828 308.377 54.5388C308.58 54.2867 308.682 53.8434 308.682 53.209V49.7198ZM320.672 53.2578H315.56C315.666 53.7946 315.914 54.2176 316.305 54.5266C316.695 54.8276 317.183 54.978 317.769 54.978C318.574 54.978 319.159 54.6812 319.525 54.0874L320.428 54.5998C319.826 55.5189 318.932 55.9784 317.744 55.9784C316.784 55.9784 315.995 55.6775 315.377 55.0756C314.775 54.4575 314.475 53.6889 314.475 52.7698C314.475 51.8426 314.771 51.0781 315.365 50.4762C315.959 49.8662 316.727 49.5612 317.671 49.5612C318.566 49.5612 319.294 49.8784 319.855 50.5128C320.424 51.131 320.709 51.8874 320.709 52.782C320.709 52.9366 320.697 53.0952 320.672 53.2578ZM317.671 50.5616C317.11 50.5616 316.638 50.7202 316.256 51.0374C315.882 51.3546 315.65 51.7857 315.56 52.3306H319.635C319.546 51.7694 319.322 51.3343 318.964 51.0252C318.606 50.7162 318.175 50.5616 317.671 50.5616Z" fill="black"/>
<path d="M117.27 39.3802V8.46917H127.695C131.918 8.46917 135.254 9.09469 137.704 10.3457C140.154 11.5968 142.082 13.4733 143.542 15.9233C145.001 18.3732 145.731 21.0317 145.731 23.9508C145.731 26.0358 145.314 28.0166 144.532 29.8932C143.75 31.7697 142.604 33.4378 141.144 34.8973C139.632 36.3569 137.86 37.5037 135.879 38.2334C134.732 38.7026 133.638 39.0153 132.647 39.1717C131.657 39.3281 129.833 39.3802 127.07 39.3802H117.27ZM127.226 12.4308H121.701V35.4707H127.383C129.624 35.4707 131.344 35.3143 132.543 35.0016C133.742 34.6888 134.785 34.324 135.619 33.8548C136.453 33.3857 137.182 32.8123 137.86 32.1346C140.049 29.8932 141.144 27.1305 141.144 23.7423C141.144 20.4062 139.997 17.6956 137.756 15.6105C136.922 14.8286 135.983 14.2031 134.889 13.6818C133.794 13.1606 132.804 12.8478 131.865 12.6914C130.927 12.4829 129.363 12.4308 127.226 12.4308Z" fill="black"/>
<path d="M166.478 8C171.274 8 175.235 9.51168 178.415 12.535C181.595 15.5584 183.21 19.3636 183.21 23.9507C183.21 28.5379 181.595 32.291 178.415 35.3143C175.183 38.2855 171.169 39.7972 166.269 39.7972C161.578 39.7972 157.721 38.2855 154.593 35.3143C151.465 32.3431 149.902 28.59 149.902 24.055C149.902 19.4157 151.465 15.6105 154.593 12.5871C157.721 9.51166 161.682 8 166.478 8ZM166.634 12.2223C163.09 12.2223 160.171 13.3169 157.877 15.5584C155.583 17.7998 154.437 20.6146 154.437 24.055C154.437 27.3911 155.583 30.1538 157.877 32.3952C160.171 34.6367 163.038 35.7313 166.478 35.7313C169.918 35.7313 172.837 34.5846 175.131 32.3431C177.424 30.1017 178.623 27.2868 178.623 23.8986C178.623 20.6146 177.477 17.8519 175.131 15.6105C172.837 13.369 170.022 12.2223 166.634 12.2223Z" fill="black"/>
<path d="M213.287 8.46917H217.458V39.4323H212.975V15.3499L203.436 27.339H202.602L192.958 15.3499V39.4323H188.527V8.46917H192.75L203.019 21.188L213.287 8.46917Z" fill="black"/>
<path d="M224.13 8.46917H228.56V39.4323H224.13V8.46917Z" fill="black"/>
<path d="M260.096 8.46917H264.319V39.4323H260.513L239.819 15.5584V39.4323H235.649V8.46917H239.246L260.148 32.5516V8.46917H260.096Z" fill="black"/>
<path d="M292.466 8.46917H296.949V26.0358C296.949 28.4337 296.793 30.2059 296.428 31.4049C296.063 32.6038 295.646 33.6463 295.125 34.4282C294.604 35.2101 293.978 35.9399 293.248 36.5654C290.798 38.7026 287.567 39.7451 283.605 39.7451C279.591 39.7451 276.359 38.7026 273.909 36.6175C273.18 35.992 272.554 35.2622 272.033 34.4282C271.512 33.6463 271.095 32.6559 270.782 31.457C270.469 30.3102 270.26 28.4336 270.26 25.9837V8.46917H274.691V26.0358C274.691 28.9549 275.004 30.9878 275.682 32.1346C276.359 33.2814 277.35 34.1676 278.705 34.8973C280.06 35.575 281.676 35.9399 283.501 35.9399C286.107 35.9399 288.296 35.2622 289.912 33.8548C290.798 33.125 291.424 32.2389 291.789 31.2485C292.154 30.2581 292.362 28.5379 292.362 26.088V8.46917H292.466Z" fill="black"/>
<path d="M310.712 26.4528L307.324 24.4199C305.186 23.1167 303.727 21.8657 302.789 20.6147C301.902 19.3636 301.433 17.9041 301.433 16.2881C301.433 13.8382 302.267 11.8574 303.988 10.3457C305.656 8.83405 307.897 8.05215 310.608 8.05215C313.214 8.05215 315.56 8.78191 317.749 10.2415V15.2977C315.508 13.1606 313.11 12.0659 310.555 12.0659C309.096 12.0659 307.897 12.3787 306.959 13.0563C306.02 13.7339 305.551 14.568 305.551 15.6105C305.551 16.5488 305.916 17.3828 306.594 18.2168C307.272 19.0509 308.366 19.8849 309.93 20.771L313.318 22.7518C317.071 24.9933 319 27.8602 319 31.3527C319 33.8548 318.166 35.8356 316.498 37.3994C314.83 38.9632 312.693 39.7451 310.034 39.7451C306.959 39.7451 304.196 38.8068 301.694 36.9303V31.3006C304.092 34.3239 306.855 35.8356 310.034 35.8356C311.442 35.8356 312.588 35.4707 313.527 34.6888C314.465 33.9069 314.934 32.9686 314.934 31.7697C314.83 29.9453 313.475 28.173 310.712 26.4528Z" fill="black"/>
</svg>
