<svg width="385" height="321" viewBox="0 0 385 321" fill="none" xmlns="http://www.w3.org/2000/svg">
<path d="M1 74.0233C1 69.0527 5.02944 65.0233 10 65.0233H135C141.075 65.0233 146 60.0984 146 54.0233V9.99999C146 5.02943 150.029 1 155 1H309C313.971 1 318 5.02944 318 10V54.0232C318 60.0984 322.925 65.0233 329 65.0233H375C379.971 65.0233 384 69.0527 384 74.0233V311C384 315.971 379.971 320 375 320H10C5.02944 320 1 315.971 1 311V74.0233Z" fill="#485253" fill-opacity="0.6" stroke="white" stroke-width="2"/>
</svg>
