<svg width="44" height="50" viewBox="0 0 44 50" fill="none" xmlns="http://www.w3.org/2000/svg">
<path d="M3.12497 0H29.6765L43.7499 14.0188V46.875C43.7499 48.6015 42.35 50 40.6249 50H3.12497C1.39992 50 0 48.6015 0 46.875V3.12497C0 1.39847 1.40008 0 3.12497 0Z" fill="#E2574C"/>
<path d="M43.7047 14.0625H32.8125C31.0874 14.0625 29.6875 12.6626 29.6875 10.9375V0.03125L43.7047 14.0625Z" fill="#B53629"/>
<path d="M32.0281 23.693C32.5516 23.693 32.8079 23.2367 32.8079 22.7946C32.8079 22.3367 32.5406 21.8945 32.0281 21.8945H29.0469C28.464 21.8945 28.1391 22.3773 28.1391 22.9102V30.2367C28.1391 30.8898 28.5109 31.2523 29.0141 31.2523C29.5141 31.2523 29.8876 30.8898 29.8876 30.2367V28.2258H31.6907C32.2501 28.2258 32.5298 27.7679 32.5298 27.3133C32.5298 26.8681 32.2501 26.4257 31.6907 26.4257H29.8876V23.693H32.0281ZM21.9515 21.8945H19.7703C19.1781 21.8945 18.7577 22.3008 18.7577 22.9039V30.243C18.7577 30.9914 19.3624 31.2258 19.7952 31.2258H22.0843C24.7936 31.2258 26.5827 29.443 26.5827 26.6914C26.5812 23.7821 24.8969 21.8945 21.9515 21.8945ZM22.0563 29.4165H20.7266V23.704H21.925C23.7392 23.704 24.5281 24.9212 24.5281 26.6008C24.5281 28.1728 23.7531 29.4165 22.0563 29.4165ZM14.0656 21.8945H11.9047C11.2938 21.8945 10.9531 22.2976 10.9531 22.9102V30.2367C10.9531 30.8898 11.3437 31.2523 11.8687 31.2523C12.3936 31.2523 12.7842 30.8898 12.7842 30.2367V28.0976H14.1389C15.8107 28.0976 17.1905 26.9132 17.1905 25.0085C17.1906 23.1446 15.8594 21.8945 14.0656 21.8945ZM14.0298 26.379H12.7844V23.6149H14.0298C14.7985 23.6149 15.2876 24.2149 15.2876 24.9977C15.286 25.779 14.7985 26.379 14.0298 26.379Z" fill="white"/>
</svg>
