<svg width="23" height="23" viewBox="0 0 23 23" fill="none" xmlns="http://www.w3.org/2000/svg">
<circle cx="11.5" cy="11.5" r="11.5" fill="#323232" fill-opacity="0.2"/>
<path d="M11.768 13.72H10.28C10.28 12.8453 10.6267 12.0613 11.32 11.368C11.384 11.304 11.5867 11.112 11.928 10.792C12.28 10.4613 12.5093 10.232 12.616 10.104C12.7333 9.96533 12.8613 9.75733 13 9.48C13.1493 9.20267 13.224 8.936 13.224 8.68C13.224 8.15733 13.0427 7.752 12.68 7.464C12.3173 7.176 11.8373 7.032 11.24 7.032C10.0667 7.032 9.31467 7.54933 8.984 8.584L7.72 7.88C7.976 7.15467 8.41867 6.59467 9.048 6.2C9.688 5.79467 10.424 5.592 11.256 5.592C12.1947 5.592 13.0053 5.85867 13.688 6.392C14.3707 6.91467 14.712 7.656 14.712 8.616C14.712 9.448 14.3653 10.2107 13.672 10.904C13.6187 10.9573 13.4533 11.1173 13.176 11.384C12.8987 11.64 12.712 11.8267 12.616 11.944C12.52 12.0507 12.3867 12.216 12.216 12.44C12.0453 12.664 11.928 12.8773 11.864 13.08C11.8 13.2827 11.768 13.496 11.768 13.72ZM11.016 17.176C10.728 17.176 10.4827 17.0747 10.28 16.872C10.0773 16.6693 9.976 16.424 9.976 16.136C9.976 15.848 10.0773 15.6027 10.28 15.4C10.4827 15.1973 10.728 15.096 11.016 15.096C11.3147 15.096 11.56 15.1973 11.752 15.4C11.9547 15.6027 12.056 15.848 12.056 16.136C12.056 16.424 11.9547 16.6693 11.752 16.872C11.56 17.0747 11.3147 17.176 11.016 17.176Z" fill="#323232"/>
</svg>
