<svg width="48" height="41" viewBox="0 0 48 41" fill="none" xmlns="http://www.w3.org/2000/svg">
<path d="M37 20H47V22C47 22 44 22.8333 44 25V29C44 33.4183 40.4183 37 36 37H24H12C7.58169 37 4 33.4183 4 29V25C4 22.8333 1 22 1 22V20H27" stroke="white" stroke-width="2" stroke-miterlimit="10"/>
<path d="M37 37L38 40V41" stroke="white" stroke-width="2" stroke-miterlimit="10"/>
<path d="M11 37L10 40V41" stroke="white" stroke-width="2" stroke-miterlimit="10"/>
<path d="M14 7H16H18" stroke="white" stroke-width="2" stroke-miterlimit="10"/>
<path d="M16 7V5C16 2.7909 14.2091 1 12 1H11C8.79089 1 7 2.7909 7 5V20" stroke="white" stroke-width="2" stroke-miterlimit="10"/>
<path d="M37 28H27V19C27 18.4477 27.4477 18 28 18H36C36.5523 18 37 18.4477 37 19V28Z" stroke="white" stroke-width="2" stroke-miterlimit="10"/>
<path d="M14 10V12" stroke="white" stroke-width="2" stroke-miterlimit="10"/>
<path d="M18 10V12" stroke="white" stroke-width="2" stroke-miterlimit="10"/>
<path d="M16 14V16" stroke="white" stroke-width="2" stroke-miterlimit="10"/>
<path d="M12 14V16" stroke="white" stroke-width="2" stroke-miterlimit="10"/>
<path d="M20 14V16" stroke="white" stroke-width="2" stroke-miterlimit="10"/>
</svg>
